<svg width="31" height="24" viewBox="0 0 31 24" fill="none" xmlns="http://www.w3.org/2000/svg">
<mask id="path-1-outside-1_2_24" maskUnits="userSpaceOnUse" x="0.0896339" y="-0.0055809" width="31" height="25" fill="black">
<rect fill="white" x="0.0896339" y="-0.0055809" width="31" height="25"/>
<path d="M24.3824 6.75978C17.9515 2.08274 12.2278 1.58722 5.79685 6.26426C12.2278 10.3567 18.6587 14.4491 25.0896 18.5415C18.6587 22.0493 11.5206 21.9602 5.08963 17.2831"/>
</mask>
<path d="M26.1469 4.33357L28.5731 6.09809L25.0441 10.9505L22.6179 9.18599L26.1469 4.33357ZM5.79685 6.26426L4.18622 8.79525L0.468873 6.42966L4.03233 3.83806L5.79685 6.26426ZM25.0896 18.5415L26.7003 16.0105L30.99 18.7404L26.5262 21.1752L25.0896 18.5415ZM3.32512 19.7093L0.898911 17.9448L4.42794 13.0924L6.85415 14.8569L3.32512 19.7093ZM24.3824 6.75978L22.6179 9.18599C19.6835 7.05185 17.2096 6.09316 14.9674 6.00175C12.7706 5.91219 10.3823 6.6389 7.56136 8.69047L5.79685 6.26426L4.03233 3.83806C7.64235 1.21259 11.3314 -0.151466 15.2118 0.00673185C19.047 0.163083 22.6504 1.79067 26.1469 4.33357L24.3824 6.75978ZM5.79685 6.26426L7.40747 3.73328C10.6229 5.77948 13.8384 7.82569 17.0539 9.87189C20.2693 11.9181 23.4848 13.9643 26.7003 16.0105L25.0896 18.5415L23.479 21.0725C20.2635 19.0263 17.0481 16.9801 13.8326 14.9339C10.6171 12.8877 7.40168 10.8415 4.18622 8.79525L5.79685 6.26426ZM25.0896 18.5415L26.5262 21.1752C19.1413 25.2033 10.7506 25.1097 3.32512 19.7093L5.08963 17.2831L6.85415 14.8569C12.2906 18.8107 18.1761 18.8952 23.6531 15.9078L25.0896 18.5415Z" fill="#1B466B" mask="url(#path-1-outside-1_2_24)"/>
</svg>
